{"asset":{"version":"2.0","generator":"Blockbench 4.12.2 glTF exporter"},"scenes":[{"nodes":[2],"name":"blockbench_export"}],"scene":0,"nodes":[{"translation":[-0.3125,0,-1.5],"name":"beveled_cuboid","mesh":0},{"name":"Turret"},{"children":[0,1]}],"bufferViews":[{"buffer":0,"byteOffset":0,"byteLength":27936,"target":34962,"byteStride":12},{"buffer":0,"byteOffset":27936,"byteLength":27936,"target":34962,"byteStride":12},{"buffer":0,"byteOffset":55872,"byteLength":18624,"target":34962,"byteStride":8},{"buffer":0,"byteOffset":74496,"byteLength":6936,"target":34963}],"buffers":[{"byteLength":81432,"uri":"data:application/octet-stream;base64,"}],"accessors":[{"bufferView":0,"componentType":5126,"count":2328,"max":[0.875,5.3125,1.875],"min":[-0.5625,0,-0.4375],"type":"VEC3"},{"bufferView":1,"componentType":5126,"count":2328,"max":[1,1,1],"min":[-1,-1,-1],"type":"VEC3"},{"bufferView":2,"componentType":5126,"count":2328,"max":[0.44099506735801697,0.044921860098838806],"min":[0,0],"type":"VEC2"},{"bufferView":3,"componentType":5123,"count":3468,"max":[2327],"min":[0],"type":"SCALAR"}],"materials":[{"pbrMetallicRoughness":{"metallicFactor":0,"roughnessFactor":1,"baseColorTexture":{"index":0}},"alphaMode":"MASK","alphaCutoff":0.05,"doubleSided":true}],"textures":[{"sampler":0,"source":0,"name":"turrettexture.png"}],"samplers":[{"magFilter":9728,"minFilter":9728,"wrapS":33071,"wrapT":33071}],"images":[{"mimeType":"image/png","uri":"data:image/png;base64,"}],"meshes":[{"primitives":[{"mode":4,"attributes":{"POSITION":0,"NORMAL":1,"TEXCOORD_0":2},"indices":3,"material":0}]}]}